<?xml version="1.0" standalone="no"?>

<!DOCTYPE svg PUBLIC "-//W3C//DTD SVG 1.1//EN"
"http://www.w3.org/Graphics/SVG/1.1/DTD/svg11.dtd">

<svg width="256" height="256" version="1.1" viewBox="0 0 256 256"
xmlns="http://www.w3.org/2000/svg">

	<defs>
		<linearGradient id="SDStroke" x1="0%" y1="0%" x2="100%" y2="100%">
			<stop offset="0%" style="stop-color:rgb(14,4,95);"/>
			<stop offset="100%" style="stop-color:rgb(0,0,0);"/>
		</linearGradient>
		<radialGradient id="SDFill" cx="20%" cy="50%" r="120%">
			<stop offset="0%" style="stop-color:rgb(26,4,146);"/>
			<stop offset="100%" style="stop-color:rgb(26,18,79);"/>
		</radialGradient>
		<linearGradient id="TerminalFill" x1="0%" y1="0" x2="100%" y2="0%">
			<stop offset="0%" style="stop-color:rgb(201,171,54);"/>
			<stop offset="100%" style="stop-color:rgb(216,194,109);"/>
		</linearGradient>
		<radialGradient id="ArrowFill" cx="40%" cy="50%" r="100%">
			<stop offset="0%" style="stop-color:rgb(255,0,0);"/>
			<stop offset="100%" style="stop-color:rgb(180,0,0);"/>
		</radialGradient>
	</defs>

	<polygon points="20,20 236,20 236,151 200,183 20,183" stroke-width="3%" stroke="url(#SDStroke)" fill="url(#SDFill)" style="stroke-linejoin: round;"/>
	<rect x="168" y="152" width="40" height="18" rx="0.5%" fill="url(#TerminalFill)"/>
	<rect x="190" y="132" width="40" height="18" rx="0.5%" fill="url(#TerminalFill)"/>
	<rect x="190" y="112" width="40" height="18" rx="0.5%" fill="url(#TerminalFill)"/>
	<rect x="190" y="92" width="40" height="18" rx="0.5%" fill="url(#TerminalFill)"/>
	<rect x="190" y="72" width="40" height="18" rx="0.5%" fill="url(#TerminalFill)"/>
	<rect x="190" y="52" width="40" height="18" rx="0.5%" fill="url(#TerminalFill)"/>
	<rect x="190" y="32" width="40" height="18" rx="0.5%" fill="url(#TerminalFill)"/>
	<polygon points="93,195 163,195 128,236" stroke-width="1%" stroke="black" fill="url(#ArrowFill)" style="stroke-linejoin: round;"/>
</svg>